# xmcd
#
# Track frame offsets:
# 150
# 21195
# 45139
# 66981
# 81782
# 109625
# 131669
# 150331
# 166011
# 192281
# 207001
# 230401
# 260771
# 274126
#
# Disc length: 3976 seconds
#
# Revision: 0
# Processed by: cddbd v1.4PL0 Copyright (c) Steve Scherf et al.
# Submitted via: Audion 2.5.0 (http://www.panic.com/audion/)
#
DISCID=b10f860e
DTITLE=Bob Dylan - Love And Theft
DYEAR=1900
DGENRE=
TTITLE0=Tweedle Dee
TTITLE1=Mississipi
TTITLE2=Summer Day
TTITLE3=Bye and Bye
TTITLE4=Lonesome Day Blues
TTITLE5=Floater
TTITLE6=High Watere
TTITLE7=Moon Light
TTITLE8=Honest With Me
TTITLE9=Po' Boy
TTITLE10=Cry a While
TTITLE11=Sugar Baby
TTITLE12=The Times They Are A-Cahngin'
TTITLE13=I Was Young When I Left Home
EXTD=
EXTT0=
EXTT1=
EXTT2=
EXTT3=
EXTT4=
EXTT5=
EXTT6=
EXTT7=
EXTT8=
EXTT9=
EXTT10=
EXTT11=
EXTT12=
EXTT13=
PLAYORDER=
